<svg xmlns="http://www.w3.org/2000/svg" viewBox="0 0 480 480" role="img"><rect width="480" height="480" fill="#191d1c"/><g><rect width="480" height="480" fill="#191d1c"/><rect x="42" y="38" width="396" height="404" fill="none" stroke="#e8ddc9" stroke-width="2" opacity=".6"/><rect x="72" y="56" width="194" height="8" fill="#d9b757"/><path d="M72 82H389" stroke="#d9b757" stroke-width="4" opacity="0.86"/><path d="M72 108H308" stroke="#e8ddc9" stroke-width="2" opacity="0.52"/><path d="M72 134H345" stroke="#e8ddc9" stroke-width="2" opacity="0.52"/><path d="M72 160H382" stroke="#e8ddc9" stroke-width="2" opacity="0.52"/><path d="M72 186H301" stroke="#d9b757" stroke-width="4" opacity="0.86"/><path d="M72 212H338" stroke="#e8ddc9" stroke-width="2" opacity="0.52"/><path d="M72 238H375" stroke="#e8ddc9" stroke-width="2" opacity="0.52"/><path d="M72 264H294" stroke="#e8ddc9" stroke-width="2" opacity="0.52"/><path d="M72 290H331" stroke="#d9b757" stroke-width="4" opacity="0.86"/><path d="M72 316H368" stroke="#e8ddc9" stroke-width="2" opacity="0.52"/><path d="M72 342H287" stroke="#e8ddc9" stroke-width="2" opacity="0.52"/><path d="M72 368H324" stroke="#e8ddc9" stroke-width="2" opacity="0.52"/><path d="M96 380l60-47 44 19 65-89 67 35" fill="none" stroke="#c94b40" stroke-width="5"/><circle cx="276" cy="322" r="17" fill="#d9b757"/></g><rect width="480" height="480" fill="url(#paper-grain)" opacity=".09"/><defs><filter id="paper-grain"><feTurbulence type="fractalNoise" baseFrequency=".8" numOctaves="2" stitchTiles="stitch"/><feColorMatrix type="saturate" values="0"/></filter></defs></svg>